<svg width="49" height="48" viewBox="0 0 49 48" fill="none" xmlns="http://www.w3.org/2000/svg">
<g clip-path="url(#clip0_1_448)">
<path d="M44.1501 22.2821C43.5746 22.2863 43.0045 22.3961 42.4673 22.6063L36.727 17.8216C36.8682 17.3 36.9687 16.7589 36.9687 16.1885C36.9687 12.8102 34.3021 10.0949 30.9843 10.0949C27.6665 10.0949 24.9998 12.8102 24.9998 16.1885C24.9998 17.1537 25.2392 18.0532 25.627 18.8624L18.6635 27.2423C18.3848 27.1892 18.102 27.1607 17.8185 27.157C17.39 27.157 16.9855 27.2301 16.5929 27.3374L10.4576 21.0902C10.5653 20.6929 10.6371 20.281 10.6371 19.8447C10.6371 17.144 8.50189 14.9698 5.84958 14.9698C3.19727 14.9698 1.06201 17.144 1.06201 19.8447C1.06201 22.5454 3.19727 24.7196 5.84958 24.7196C6.27806 24.7196 6.68261 24.6464 7.07519 24.5392L13.2105 30.7864C13.0954 31.1913 13.035 31.6104 13.0309 32.0319C13.0309 34.7326 15.1662 36.9068 17.8185 36.9068C20.4708 36.9068 22.6061 34.7326 22.6061 32.0319C22.6061 31.4542 22.4912 30.9107 22.3116 30.3964L29.2847 22.0067C29.8281 22.1676 30.3906 22.2821 30.9843 22.2821C31.929 22.2768 32.8588 22.042 33.6964 21.5972L39.4391 26.3819C39.3941 26.6379 39.3685 26.897 39.3625 27.157C39.3625 29.8577 41.4978 32.0319 44.1501 32.0319C46.8024 32.0319 48.9377 29.8577 48.9377 27.157C48.9377 24.4563 46.8024 22.2821 44.1501 22.2821Z" fill="#00A0C1"/>
</g>
<defs>
<clipPath id="clip0_1_448">
<rect width="48" height="48" fill="white" transform="translate(0.5)"/>
</clipPath>
</defs>
</svg>
